<svg xmlns="http://www.w3.org/2000/svg" viewBox="0 0 263 356" width="263" height="356">
	<style>
		tspan { white-space:pre }
		.shp0 { fill: #e90fa2 }
		.shp1 { fill: #ffffff }
	</style>
	<g id="Layer_2">
		<g id="Layer_1-2">
			<path id="Layer" fill-rule="evenodd" class="shp0" d="M239.82 322.99C239.82 330.89 235.74 338.24 229.04 342.43C222.34 346.62 213.95 347.06 206.84 343.6C199.73 340.14 194.91 333.27 194.07 325.41C193.23 317.55 196.5 309.81 202.72 304.93L202.8 154.75C202.63 142.7 197.72 131.21 189.14 122.75C180.57 114.29 169 109.54 156.96 109.53C144.91 109.53 133.34 114.26 124.75 122.71C116.17 131.17 111.25 142.66 111.07 154.7L111.06 161.7C118.75 167.75 121.76 178 118.56 187.24C115.36 196.48 106.65 202.68 96.87 202.68C87.09 202.67 78.39 196.47 75.2 187.22C72.01 177.98 75.03 167.73 82.72 161.69L82.73 154.69C82.74 135.01 90.57 116.13 104.49 102.22C118.41 88.31 137.29 80.51 156.97 80.52C176.66 80.53 195.53 88.35 209.44 102.28C223.35 116.2 231.16 135.08 231.15 154.76L231.07 304.98C232.43 306.05 233.66 307.27 234.75 308.62C235.83 309.96 236.76 311.43 237.52 312.98C238.27 314.53 238.85 316.17 239.24 317.85C239.62 319.54 239.82 321.26 239.82 322.99ZM105.64 179.75C105.65 178.6 105.42 177.46 104.98 176.4C104.54 175.34 103.9 174.37 103.09 173.56C102.27 172.74 101.31 172.1 100.25 171.66C99.19 171.22 98.05 170.99 96.9 170.99C93.35 170.98 90.16 173.11 88.8 176.38C87.44 179.65 88.18 183.42 90.68 185.93C93.19 188.44 96.96 189.19 100.23 187.84C103.51 186.49 105.64 183.29 105.64 179.75ZM208.12 322.97C208.12 325.3 209.04 327.52 210.68 329.17C212.33 330.81 214.55 331.74 216.88 331.74C219.2 331.74 221.43 330.82 223.07 329.17C224.72 327.53 225.64 325.3 225.64 322.98C225.64 322.75 225.63 322.52 225.62 322.3C225.6 322.07 225.57 321.84 225.54 321.61C225.5 321.39 225.45 321.16 225.4 320.94C225.35 320.72 225.28 320.5 225.21 320.28C224.64 318.52 223.53 316.99 222.03 315.9C220.54 314.81 218.74 314.23 216.89 314.23C215.04 314.23 213.23 314.81 211.74 315.9C210.24 316.98 209.13 318.51 208.55 320.27C208.48 320.49 208.42 320.71 208.36 320.93C208.31 321.15 208.27 321.38 208.23 321.6C208.19 321.83 208.17 322.06 208.15 322.29C208.13 322.51 208.12 322.74 208.12 322.97Z" />
			<path id="Layer" fill-rule="evenodd" class="shp1" d="M149.31 257.75C135.39 271.66 116.51 279.47 96.82 279.46C77.14 279.45 58.27 271.62 44.36 257.69C30.45 243.77 22.64 224.89 22.65 205.21L22.73 55.05C15.04 49 12.03 38.75 15.24 29.51C18.44 20.27 27.14 14.07 36.92 14.08C46.7 14.08 55.4 20.29 58.6 29.53C61.79 38.77 58.77 49.02 51.08 55.06L51 205.22C50.81 217.5 55.56 229.35 64.18 238.1C72.79 246.85 84.56 251.79 96.84 251.79C109.13 251.8 120.9 246.88 129.52 238.13C138.15 229.39 142.91 217.55 142.73 205.27L142.74 197.81C135.05 191.76 132.04 181.51 135.24 172.27C138.44 163.03 147.15 156.83 156.93 156.84C166.71 156.84 175.41 163.05 178.6 172.29C181.79 181.53 178.77 191.79 171.08 197.82L171.07 205.28C171.06 224.96 163.23 243.84 149.31 257.75ZM148.15 179.77C148.15 180.92 148.38 182.06 148.81 183.12C149.25 184.19 149.9 185.15 150.71 185.97C151.52 186.78 152.48 187.43 153.54 187.87C154.6 188.31 155.74 188.54 156.89 188.55C160.43 188.56 163.63 186.43 165 183.16C166.36 179.89 165.62 176.12 163.12 173.61C160.62 171.09 156.85 170.34 153.58 171.69C150.3 173.04 148.16 176.23 148.15 179.77ZM28.58 39.7C28.86 40.57 29.28 41.39 29.83 42.13C30.37 42.88 31.02 43.53 31.77 44.06C32.51 44.6 33.33 45.02 34.21 45.3C35.08 45.58 35.99 45.72 36.91 45.71C40.72 45.71 44.08 43.25 45.25 39.63C46.41 36.01 45.11 32.05 42.02 29.83C38.94 27.61 34.77 27.63 31.7 29.88C28.64 32.13 27.38 36.1 28.58 39.71L28.58 39.7Z" />
		</g>
	</g>
</svg>
